<svg width="869" height="692" viewBox="0 0 869 692" fill="none" xmlns="http://www.w3.org/2000/svg">
<path opacity="0.5" fill-rule="evenodd" clip-rule="evenodd" d="M476.774 564.143C414.562 604.398 372.952 701.015 299.561 690.781C231.902 681.346 226.355 580.161 187.582 523.815C150.958 470.591 103.155 428.261 77.9704 368.753C43.9628 288.398 -32.4339 191.842 16.5685 119.734C67.6012 44.6375 188.524 78.5547 279.071 72.8278C335.553 69.2555 388.524 102.538 444.252 92.6838C528.784 77.7364 595.44 -14.4916 679.711 1.98506C765.307 18.721 874.779 88.5409 868.577 175.648C861.201 279.241 719.354 311.39 652.058 390.366C623.6 423.764 620.638 472.295 589.482 503.183C558.512 533.887 513.378 540.457 476.774 564.143Z" fill="#FFFCF2"/>
</svg>
